<mxfile host="app.diagrams.net" modified="2021-07-31T20:08:38.254Z" agent="5.0 (Windows NT 10.0; Win64; x64) AppleWebKit/537.36 (KHTML, like Gecko) Chrome/92.0.4515.107 Safari/537.36" etag="hU24PVKaj9xf0plm-Not" version="14.9.3" type="github">
  <diagram id="R2lEEEUBdFMjLlhIrx00" name="Page-1">
    <mxGraphModel dx="1718" dy="1550" grid="1" gridSize="10" guides="1" tooltips="1" connect="1" arrows="1" fold="1" page="1" pageScale="1" pageWidth="850" pageHeight="1100" math="0" shadow="0" extFonts="Permanent Marker^https://fonts.googleapis.com/css?family=Permanent+Marker">
      <root>
        <mxCell id="0" />
        <mxCell id="1" parent="0" />
        <mxCell id="9EKVIyOOfx1yKH4zafNA-1" value="&lt;font style=&quot;font-size: 18px&quot;&gt;Trecho&lt;/font&gt;" style="rounded=0;whiteSpace=wrap;html=1;" parent="1" vertex="1">
          <mxGeometry y="370" width="220" height="60" as="geometry" />
        </mxCell>
        <mxCell id="9EKVIyOOfx1yKH4zafNA-2" value="&lt;span style=&quot;font-size: 18px&quot;&gt;Reservas&lt;/span&gt;" style="rounded=0;whiteSpace=wrap;html=1;" parent="1" vertex="1">
          <mxGeometry y="80" width="220" height="60" as="geometry" />
        </mxCell>
        <mxCell id="9EKVIyOOfx1yKH4zafNA-4" value="&lt;font style=&quot;font-size: 18px&quot;&gt;Cidades&lt;/font&gt;" style="rounded=0;whiteSpace=wrap;html=1;" parent="1" vertex="1">
          <mxGeometry x="470" y="770" width="220" height="60" as="geometry" />
        </mxCell>
        <mxCell id="9EKVIyOOfx1yKH4zafNA-5" value="&lt;span style=&quot;font-size: 18px&quot;&gt;Aeroportos&lt;/span&gt;" style="rounded=0;whiteSpace=wrap;html=1;" parent="1" vertex="1">
          <mxGeometry y="600" width="220" height="60" as="geometry" />
        </mxCell>
        <mxCell id="9EKVIyOOfx1yKH4zafNA-6" value="&lt;span style=&quot;font-size: 18px&quot;&gt;Voos&lt;/span&gt;" style="rounded=0;whiteSpace=wrap;html=1;" parent="1" vertex="1">
          <mxGeometry x="-435" y="480" width="220" height="60" as="geometry" />
        </mxCell>
        <mxCell id="9EKVIyOOfx1yKH4zafNA-9" value="&lt;span style=&quot;font-size: 18px&quot;&gt;Aeronave&lt;/span&gt;" style="rounded=0;whiteSpace=wrap;html=1;" parent="1" vertex="1">
          <mxGeometry x="450" y="370" width="220" height="60" as="geometry" />
        </mxCell>
        <mxCell id="9EKVIyOOfx1yKH4zafNA-10" value="&lt;span style=&quot;font-size: 18px&quot;&gt;Assento&lt;/span&gt;" style="rounded=0;whiteSpace=wrap;html=1;" parent="1" vertex="1">
          <mxGeometry x="450" y="80" width="220" height="60" as="geometry" />
        </mxCell>
        <mxCell id="cMllE6r7DTJcGbb2FHrs-1" value="&lt;font style=&quot;font-size: 18px&quot; color=&quot;#ffffff&quot;&gt;Código&lt;/font&gt;" style="ellipse;whiteSpace=wrap;html=1;fillColor=#000000;" parent="1" vertex="1">
          <mxGeometry x="175" y="-20" width="80" height="40" as="geometry" />
        </mxCell>
        <mxCell id="cMllE6r7DTJcGbb2FHrs-2" value="&lt;span style=&quot;font-size: 18px&quot;&gt;Passageiro&lt;/span&gt;" style="ellipse;whiteSpace=wrap;html=1;" parent="1" vertex="1">
          <mxGeometry x="60" y="-30" width="100" height="40" as="geometry" />
        </mxCell>
        <mxCell id="cMllE6r7DTJcGbb2FHrs-3" value="" style="endArrow=none;html=1;entryX=0.5;entryY=1;entryDx=0;entryDy=0;exitX=0.5;exitY=0;exitDx=0;exitDy=0;" parent="1" source="9EKVIyOOfx1yKH4zafNA-1" target="9EKVIyOOfx1yKH4zafNA-2" edge="1">
          <mxGeometry width="50" height="50" relative="1" as="geometry">
            <mxPoint x="130" y="390" as="sourcePoint" />
            <mxPoint x="180" y="340" as="targetPoint" />
          </mxGeometry>
        </mxCell>
        <mxCell id="cMllE6r7DTJcGbb2FHrs-5" value="" style="endArrow=none;html=1;entryX=1;entryY=0.5;entryDx=0;entryDy=0;exitX=0;exitY=0.5;exitDx=0;exitDy=0;" parent="1" source="9EKVIyOOfx1yKH4zafNA-1" target="cMllE6r7DTJcGbb2FHrs-41" edge="1">
          <mxGeometry width="50" height="50" relative="1" as="geometry">
            <mxPoint x="130" y="390" as="sourcePoint" />
            <mxPoint x="-89.99999999999977" y="400" as="targetPoint" />
          </mxGeometry>
        </mxCell>
        <mxCell id="cMllE6r7DTJcGbb2FHrs-6" value="&lt;font style=&quot;font-size: 18px&quot;&gt;Prazo&lt;/font&gt;" style="ellipse;whiteSpace=wrap;html=1;" parent="1" vertex="1">
          <mxGeometry x="-30" y="-20" width="80" height="40" as="geometry" />
        </mxCell>
        <mxCell id="cMllE6r7DTJcGbb2FHrs-7" value="" style="endArrow=none;html=1;entryX=0.5;entryY=1;entryDx=0;entryDy=0;exitX=0.5;exitY=0;exitDx=0;exitDy=0;" parent="1" source="9EKVIyOOfx1yKH4zafNA-2" target="cMllE6r7DTJcGbb2FHrs-6" edge="1">
          <mxGeometry width="50" height="50" relative="1" as="geometry">
            <mxPoint x="130" y="330" as="sourcePoint" />
            <mxPoint x="180" y="280" as="targetPoint" />
          </mxGeometry>
        </mxCell>
        <mxCell id="cMllE6r7DTJcGbb2FHrs-8" value="" style="endArrow=none;html=1;entryX=0.5;entryY=1;entryDx=0;entryDy=0;" parent="1" target="cMllE6r7DTJcGbb2FHrs-1" edge="1">
          <mxGeometry width="50" height="50" relative="1" as="geometry">
            <mxPoint x="110" y="80" as="sourcePoint" />
            <mxPoint x="170" y="20" as="targetPoint" />
          </mxGeometry>
        </mxCell>
        <mxCell id="cMllE6r7DTJcGbb2FHrs-9" value="" style="endArrow=none;html=1;exitX=0.5;exitY=0;exitDx=0;exitDy=0;entryX=0.5;entryY=1;entryDx=0;entryDy=0;" parent="1" source="9EKVIyOOfx1yKH4zafNA-2" target="cMllE6r7DTJcGbb2FHrs-2" edge="1">
          <mxGeometry width="50" height="50" relative="1" as="geometry">
            <mxPoint x="110" y="69.99999999999989" as="sourcePoint" />
            <mxPoint x="120" y="20" as="targetPoint" />
          </mxGeometry>
        </mxCell>
        <mxCell id="cMllE6r7DTJcGbb2FHrs-11" value="&lt;font style=&quot;font-size: 18px&quot;&gt;Numero&lt;/font&gt;" style="ellipse;whiteSpace=wrap;html=1;" parent="1" vertex="1">
          <mxGeometry x="-365" y="570" width="80" height="40" as="geometry" />
        </mxCell>
        <mxCell id="cMllE6r7DTJcGbb2FHrs-14" value="" style="endArrow=none;html=1;entryX=0.5;entryY=1;entryDx=0;entryDy=0;exitX=0.5;exitY=0;exitDx=0;exitDy=0;" parent="1" source="cMllE6r7DTJcGbb2FHrs-11" target="9EKVIyOOfx1yKH4zafNA-6" edge="1">
          <mxGeometry width="50" height="50" relative="1" as="geometry">
            <mxPoint x="-235" y="790" as="sourcePoint" />
            <mxPoint x="-125" y="730" as="targetPoint" />
          </mxGeometry>
        </mxCell>
        <mxCell id="cMllE6r7DTJcGbb2FHrs-16" value="" style="endArrow=none;html=1;entryX=0.25;entryY=1;entryDx=0;entryDy=0;exitX=1;exitY=0.5;exitDx=0;exitDy=0;startArrow=none;" parent="1" source="cMllE6r7DTJcGbb2FHrs-55" target="9EKVIyOOfx1yKH4zafNA-1" edge="1">
          <mxGeometry width="50" height="50" relative="1" as="geometry">
            <mxPoint x="380" y="460" as="sourcePoint" />
            <mxPoint x="430" y="410" as="targetPoint" />
          </mxGeometry>
        </mxCell>
        <mxCell id="cMllE6r7DTJcGbb2FHrs-20" value="&lt;font style=&quot;font-size: 18px&quot;&gt;Modelo&lt;/font&gt;" style="ellipse;whiteSpace=wrap;html=1;" parent="1" vertex="1">
          <mxGeometry x="710" y="380" width="80" height="40" as="geometry" />
        </mxCell>
        <mxCell id="cMllE6r7DTJcGbb2FHrs-21" value="" style="endArrow=none;html=1;exitX=0.25;exitY=1;exitDx=0;exitDy=0;entryX=0.25;entryY=0;entryDx=0;entryDy=0;" parent="1" source="9EKVIyOOfx1yKH4zafNA-1" target="9EKVIyOOfx1yKH4zafNA-5" edge="1">
          <mxGeometry width="50" height="50" relative="1" as="geometry">
            <mxPoint x="340" y="410" as="sourcePoint" />
            <mxPoint x="390" y="360" as="targetPoint" />
          </mxGeometry>
        </mxCell>
        <mxCell id="cMllE6r7DTJcGbb2FHrs-22" value="" style="endArrow=none;html=1;entryX=0;entryY=0.5;entryDx=0;entryDy=0;exitX=1;exitY=0.5;exitDx=0;exitDy=0;" parent="1" source="9EKVIyOOfx1yKH4zafNA-5" target="K0stT1CYS860riI5PFnf-12" edge="1">
          <mxGeometry width="50" height="50" relative="1" as="geometry">
            <mxPoint x="220" y="630" as="sourcePoint" />
            <mxPoint x="-40" y="590" as="targetPoint" />
          </mxGeometry>
        </mxCell>
        <mxCell id="cMllE6r7DTJcGbb2FHrs-23" value="" style="endArrow=none;html=1;exitX=0.75;exitY=1;exitDx=0;exitDy=0;entryX=0.75;entryY=0;entryDx=0;entryDy=0;" parent="1" source="9EKVIyOOfx1yKH4zafNA-1" target="9EKVIyOOfx1yKH4zafNA-5" edge="1">
          <mxGeometry width="50" height="50" relative="1" as="geometry">
            <mxPoint x="215" y="430" as="sourcePoint" />
            <mxPoint x="440" y="430" as="targetPoint" />
          </mxGeometry>
        </mxCell>
        <mxCell id="cMllE6r7DTJcGbb2FHrs-24" value="&lt;font style=&quot;font-size: 18px&quot;&gt;Destino&lt;/font&gt;" style="rhombus;whiteSpace=wrap;html=1;" parent="1" vertex="1">
          <mxGeometry x="10" y="490" width="90" height="60" as="geometry" />
        </mxCell>
        <mxCell id="cMllE6r7DTJcGbb2FHrs-28" value="&lt;font style=&quot;font-size: 18px&quot;&gt;Origem&lt;/font&gt;" style="rhombus;whiteSpace=wrap;html=1;" parent="1" vertex="1">
          <mxGeometry x="120" y="490" width="90" height="60" as="geometry" />
        </mxCell>
        <mxCell id="cMllE6r7DTJcGbb2FHrs-30" value="&lt;font style=&quot;font-size: 18px&quot;&gt;Nome&lt;/font&gt;" style="ellipse;whiteSpace=wrap;html=1;" parent="1" vertex="1">
          <mxGeometry x="540" y="680" width="80" height="40" as="geometry" />
        </mxCell>
        <mxCell id="cMllE6r7DTJcGbb2FHrs-31" value="&lt;font style=&quot;font-size: 18px&quot;&gt;Estado&lt;/font&gt;" style="ellipse;whiteSpace=wrap;html=1;" parent="1" vertex="1">
          <mxGeometry x="540" y="620" width="80" height="40" as="geometry" />
        </mxCell>
        <mxCell id="cMllE6r7DTJcGbb2FHrs-32" value="&lt;font style=&quot;font-size: 18px&quot;&gt;País&lt;/font&gt;" style="ellipse;whiteSpace=wrap;html=1;" parent="1" vertex="1">
          <mxGeometry x="540" y="560" width="80" height="40" as="geometry" />
        </mxCell>
        <mxCell id="cMllE6r7DTJcGbb2FHrs-33" value="" style="endArrow=none;html=1;entryX=0.5;entryY=0;entryDx=0;entryDy=0;exitX=0.5;exitY=1;exitDx=0;exitDy=0;" parent="1" source="cMllE6r7DTJcGbb2FHrs-30" target="9EKVIyOOfx1yKH4zafNA-4" edge="1">
          <mxGeometry width="50" height="50" relative="1" as="geometry">
            <mxPoint x="460" y="580" as="sourcePoint" />
            <mxPoint x="410" y="540" as="targetPoint" />
          </mxGeometry>
        </mxCell>
        <mxCell id="cMllE6r7DTJcGbb2FHrs-36" value="" style="endArrow=none;html=1;entryX=0.5;entryY=1;entryDx=0;entryDy=0;exitX=0.5;exitY=0;exitDx=0;exitDy=0;" parent="1" source="cMllE6r7DTJcGbb2FHrs-30" target="cMllE6r7DTJcGbb2FHrs-31" edge="1">
          <mxGeometry width="50" height="50" relative="1" as="geometry">
            <mxPoint x="580" y="700" as="sourcePoint" />
            <mxPoint x="580" y="650" as="targetPoint" />
          </mxGeometry>
        </mxCell>
        <mxCell id="cMllE6r7DTJcGbb2FHrs-37" value="" style="endArrow=none;html=1;entryX=0.5;entryY=1;entryDx=0;entryDy=0;exitX=0.5;exitY=0;exitDx=0;exitDy=0;" parent="1" source="cMllE6r7DTJcGbb2FHrs-31" target="cMllE6r7DTJcGbb2FHrs-32" edge="1">
          <mxGeometry width="50" height="50" relative="1" as="geometry">
            <mxPoint x="910" y="500" as="sourcePoint" />
            <mxPoint x="960" y="450" as="targetPoint" />
          </mxGeometry>
        </mxCell>
        <mxCell id="cMllE6r7DTJcGbb2FHrs-38" value="&lt;font style=&quot;font-size: 18px&quot;&gt;Nome&lt;/font&gt;" style="ellipse;whiteSpace=wrap;html=1;" parent="1" vertex="1">
          <mxGeometry x="130" y="700" width="80" height="40" as="geometry" />
        </mxCell>
        <mxCell id="cMllE6r7DTJcGbb2FHrs-40" value="" style="endArrow=none;html=1;entryX=0.5;entryY=1;entryDx=0;entryDy=0;exitX=0.5;exitY=0;exitDx=0;exitDy=0;" parent="1" source="cMllE6r7DTJcGbb2FHrs-38" target="9EKVIyOOfx1yKH4zafNA-5" edge="1">
          <mxGeometry width="50" height="50" relative="1" as="geometry">
            <mxPoint x="20" y="590" as="sourcePoint" />
            <mxPoint x="70" y="540" as="targetPoint" />
          </mxGeometry>
        </mxCell>
        <mxCell id="cMllE6r7DTJcGbb2FHrs-41" value="&lt;span style=&quot;font-size: 18px&quot;&gt;Horário&lt;/span&gt;" style="rounded=0;whiteSpace=wrap;html=1;" parent="1" vertex="1">
          <mxGeometry x="-435" y="370" width="220" height="60" as="geometry" />
        </mxCell>
        <mxCell id="cMllE6r7DTJcGbb2FHrs-42" value="&lt;font style=&quot;font-size: 18px&quot;&gt;Hora&lt;/font&gt;" style="ellipse;whiteSpace=wrap;html=1;" parent="1" vertex="1">
          <mxGeometry x="-440" y="280" width="80" height="40" as="geometry" />
        </mxCell>
        <mxCell id="cMllE6r7DTJcGbb2FHrs-44" value="" style="endArrow=none;html=1;entryX=0.5;entryY=1;entryDx=0;entryDy=0;exitX=0.5;exitY=0;exitDx=0;exitDy=0;" parent="1" source="cMllE6r7DTJcGbb2FHrs-41" target="cMllE6r7DTJcGbb2FHrs-42" edge="1">
          <mxGeometry width="50" height="50" relative="1" as="geometry">
            <mxPoint x="-195" y="350" as="sourcePoint" />
            <mxPoint x="-145" y="300" as="targetPoint" />
          </mxGeometry>
        </mxCell>
        <mxCell id="cMllE6r7DTJcGbb2FHrs-45" value="" style="endArrow=none;html=1;entryX=0.5;entryY=1;entryDx=0;entryDy=0;exitX=0.5;exitY=0;exitDx=0;exitDy=0;" parent="1" source="cMllE6r7DTJcGbb2FHrs-41" target="Am9kNuoJs-DJNHHpb7s0-4" edge="1">
          <mxGeometry width="50" height="50" relative="1" as="geometry">
            <mxPoint x="-195" y="350" as="sourcePoint" />
            <mxPoint x="-430" y="615" as="targetPoint" />
          </mxGeometry>
        </mxCell>
        <mxCell id="cMllE6r7DTJcGbb2FHrs-46" value="" style="rhombus;whiteSpace=wrap;html=1;" parent="1" vertex="1">
          <mxGeometry x="-175" y="370" width="130" height="60" as="geometry" />
        </mxCell>
        <mxCell id="cMllE6r7DTJcGbb2FHrs-47" value="" style="endArrow=none;html=1;entryX=0.5;entryY=0;entryDx=0;entryDy=0;exitX=0.5;exitY=1;exitDx=0;exitDy=0;" parent="1" source="9EKVIyOOfx1yKH4zafNA-10" target="9EKVIyOOfx1yKH4zafNA-9" edge="1">
          <mxGeometry width="50" height="50" relative="1" as="geometry">
            <mxPoint x="750" y="70" as="sourcePoint" />
            <mxPoint x="920" y="-130" as="targetPoint" />
          </mxGeometry>
        </mxCell>
        <mxCell id="cMllE6r7DTJcGbb2FHrs-48" value="" style="endArrow=none;html=1;entryX=0;entryY=0.5;entryDx=0;entryDy=0;" parent="1" target="cMllE6r7DTJcGbb2FHrs-20" edge="1">
          <mxGeometry width="50" height="50" relative="1" as="geometry">
            <mxPoint x="670" y="400" as="sourcePoint" />
            <mxPoint x="920" y="-130" as="targetPoint" />
          </mxGeometry>
        </mxCell>
        <mxCell id="cMllE6r7DTJcGbb2FHrs-50" value="&lt;font style=&quot;font-size: 18px&quot;&gt;Classe&lt;/font&gt;" style="ellipse;whiteSpace=wrap;html=1;" parent="1" vertex="1">
          <mxGeometry x="585" y="-10" width="80" height="40" as="geometry" />
        </mxCell>
        <mxCell id="cMllE6r7DTJcGbb2FHrs-51" value="" style="endArrow=none;html=1;exitX=0.5;exitY=0;exitDx=0;exitDy=0;entryX=0.5;entryY=1;entryDx=0;entryDy=0;" parent="1" source="9EKVIyOOfx1yKH4zafNA-10" edge="1">
          <mxGeometry width="50" height="50" relative="1" as="geometry">
            <mxPoint x="370" y="370" as="sourcePoint" />
            <mxPoint x="510" y="30" as="targetPoint" />
          </mxGeometry>
        </mxCell>
        <mxCell id="cMllE6r7DTJcGbb2FHrs-52" value="" style="endArrow=none;html=1;entryX=0.5;entryY=1;entryDx=0;entryDy=0;exitX=0.5;exitY=0;exitDx=0;exitDy=0;" parent="1" source="9EKVIyOOfx1yKH4zafNA-10" target="cMllE6r7DTJcGbb2FHrs-50" edge="1">
          <mxGeometry width="50" height="50" relative="1" as="geometry">
            <mxPoint x="740" y="70" as="sourcePoint" />
            <mxPoint x="420" y="320" as="targetPoint" />
          </mxGeometry>
        </mxCell>
        <mxCell id="cMllE6r7DTJcGbb2FHrs-54" value="" style="endArrow=none;html=1;entryX=0;entryY=0.5;entryDx=0;entryDy=0;exitX=1;exitY=0.5;exitDx=0;exitDy=0;" parent="1" source="9EKVIyOOfx1yKH4zafNA-2" target="9EKVIyOOfx1yKH4zafNA-10" edge="1">
          <mxGeometry width="50" height="50" relative="1" as="geometry">
            <mxPoint x="280" y="170" as="sourcePoint" />
            <mxPoint x="360" y="110" as="targetPoint" />
          </mxGeometry>
        </mxCell>
        <mxCell id="cMllE6r7DTJcGbb2FHrs-55" value="" style="rhombus;whiteSpace=wrap;html=1;rotation=0;" parent="1" vertex="1">
          <mxGeometry x="-175" y="480" width="130" height="60" as="geometry" />
        </mxCell>
        <mxCell id="cMllE6r7DTJcGbb2FHrs-56" value="" style="endArrow=none;html=1;entryX=0;entryY=0.5;entryDx=0;entryDy=0;exitX=1;exitY=0.5;exitDx=0;exitDy=0;" parent="1" source="9EKVIyOOfx1yKH4zafNA-6" target="cMllE6r7DTJcGbb2FHrs-55" edge="1">
          <mxGeometry width="50" height="50" relative="1" as="geometry">
            <mxPoint x="-325" y="530" as="sourcePoint" />
            <mxPoint x="95" y="430" as="targetPoint" />
          </mxGeometry>
        </mxCell>
        <mxCell id="cMllE6r7DTJcGbb2FHrs-61" value="" style="endArrow=none;html=1;entryX=0;entryY=0.5;entryDx=0;entryDy=0;exitX=1;exitY=0.5;exitDx=0;exitDy=0;" parent="1" source="9EKVIyOOfx1yKH4zafNA-1" target="9EKVIyOOfx1yKH4zafNA-9" edge="1">
          <mxGeometry width="50" height="50" relative="1" as="geometry">
            <mxPoint x="300" y="280" as="sourcePoint" />
            <mxPoint x="350" y="230" as="targetPoint" />
          </mxGeometry>
        </mxCell>
        <mxCell id="cMllE6r7DTJcGbb2FHrs-62" value="" style="rhombus;whiteSpace=wrap;html=1;" parent="1" vertex="1">
          <mxGeometry x="270" y="370" width="130" height="60" as="geometry" />
        </mxCell>
        <mxCell id="cMllE6r7DTJcGbb2FHrs-63" value="" style="rhombus;whiteSpace=wrap;html=1;" parent="1" vertex="1">
          <mxGeometry x="270" y="80" width="130" height="60" as="geometry" />
        </mxCell>
        <mxCell id="cMllE6r7DTJcGbb2FHrs-64" value="" style="rhombus;whiteSpace=wrap;html=1;" parent="1" vertex="1">
          <mxGeometry x="45" y="230" width="130" height="60" as="geometry" />
        </mxCell>
        <mxCell id="cMllE6r7DTJcGbb2FHrs-65" value="" style="rhombus;whiteSpace=wrap;html=1;" parent="1" vertex="1">
          <mxGeometry x="495" y="230" width="130" height="60" as="geometry" />
        </mxCell>
        <mxCell id="cMllE6r7DTJcGbb2FHrs-98" value="" style="endArrow=none;html=1;entryX=0.5;entryY=1;entryDx=0;entryDy=0;exitX=0.5;exitY=0;exitDx=0;exitDy=0;" parent="1" source="K0stT1CYS860riI5PFnf-16" target="9EKVIyOOfx1yKH4zafNA-5" edge="1">
          <mxGeometry width="50" height="50" relative="1" as="geometry">
            <mxPoint x="50" y="700" as="sourcePoint" />
            <mxPoint x="200" y="610" as="targetPoint" />
          </mxGeometry>
        </mxCell>
        <mxCell id="K0stT1CYS860riI5PFnf-1" value="&lt;font style=&quot;font-size: 18px&quot;&gt;(1,1)&lt;/font&gt;" style="text;html=1;strokeColor=none;fillColor=none;align=center;verticalAlign=middle;whiteSpace=wrap;rounded=0;" parent="1" vertex="1">
          <mxGeometry x="60" y="560" width="40" height="20" as="geometry" />
        </mxCell>
        <mxCell id="K0stT1CYS860riI5PFnf-2" value="&lt;font style=&quot;font-size: 18px&quot;&gt;(1,1)&lt;/font&gt;" style="text;html=1;strokeColor=none;fillColor=none;align=center;verticalAlign=middle;whiteSpace=wrap;rounded=0;" parent="1" vertex="1">
          <mxGeometry x="170" y="560" width="40" height="20" as="geometry" />
        </mxCell>
        <mxCell id="K0stT1CYS860riI5PFnf-3" value="&lt;font style=&quot;font-size: 18px&quot;&gt;(0,n)&lt;/font&gt;" style="text;html=1;strokeColor=none;fillColor=none;align=center;verticalAlign=middle;whiteSpace=wrap;rounded=0;" parent="1" vertex="1">
          <mxGeometry x="60" y="450" width="40" height="20" as="geometry" />
        </mxCell>
        <mxCell id="K0stT1CYS860riI5PFnf-4" value="&lt;font style=&quot;font-size: 18px&quot;&gt;(0,n)&lt;/font&gt;" style="text;html=1;strokeColor=none;fillColor=none;align=center;verticalAlign=middle;whiteSpace=wrap;rounded=0;" parent="1" vertex="1">
          <mxGeometry x="175" y="450" width="40" height="20" as="geometry" />
        </mxCell>
        <mxCell id="K0stT1CYS860riI5PFnf-5" value="&lt;font style=&quot;font-size: 18px&quot;&gt;(1,1)&lt;/font&gt;" style="text;html=1;strokeColor=none;fillColor=none;align=center;verticalAlign=middle;whiteSpace=wrap;rounded=0;" parent="1" vertex="1">
          <mxGeometry x="-45" y="370" width="40" height="20" as="geometry" />
        </mxCell>
        <mxCell id="K0stT1CYS860riI5PFnf-9" value="&lt;font style=&quot;font-size: 18px&quot;&gt;(0,n)&lt;/font&gt;" style="text;html=1;strokeColor=none;fillColor=none;align=center;verticalAlign=middle;whiteSpace=wrap;rounded=0;" parent="1" vertex="1">
          <mxGeometry x="-215" y="370" width="40" height="20" as="geometry" />
        </mxCell>
        <mxCell id="K0stT1CYS860riI5PFnf-10" value="&lt;font style=&quot;font-size: 18px&quot;&gt;(0,n)&lt;/font&gt;" style="text;html=1;strokeColor=none;fillColor=none;align=center;verticalAlign=middle;whiteSpace=wrap;rounded=0;" parent="1" vertex="1">
          <mxGeometry x="-30" y="440" width="40" height="20" as="geometry" />
        </mxCell>
        <mxCell id="K0stT1CYS860riI5PFnf-11" value="&lt;font style=&quot;font-size: 18px&quot;&gt;(1,1)&lt;/font&gt;" style="text;html=1;strokeColor=none;fillColor=none;align=center;verticalAlign=middle;whiteSpace=wrap;rounded=0;" parent="1" vertex="1">
          <mxGeometry x="-215" y="480" width="40" height="20" as="geometry" />
        </mxCell>
        <mxCell id="K0stT1CYS860riI5PFnf-12" value="" style="rhombus;whiteSpace=wrap;html=1;rotation=0;" parent="1" vertex="1">
          <mxGeometry x="280" y="690" width="130" height="60" as="geometry" />
        </mxCell>
        <mxCell id="K0stT1CYS860riI5PFnf-14" value="" style="endArrow=none;html=1;entryX=1;entryY=0.5;entryDx=0;entryDy=0;exitX=0;exitY=0.5;exitDx=0;exitDy=0;" parent="1" source="9EKVIyOOfx1yKH4zafNA-4" target="K0stT1CYS860riI5PFnf-12" edge="1">
          <mxGeometry width="50" height="50" relative="1" as="geometry">
            <mxPoint x="230" y="640" as="sourcePoint" />
            <mxPoint x="280" y="730" as="targetPoint" />
          </mxGeometry>
        </mxCell>
        <mxCell id="K0stT1CYS860riI5PFnf-16" value="&lt;font style=&quot;font-size: 18px&quot; color=&quot;#ffffff&quot;&gt;Código&lt;/font&gt;" style="ellipse;whiteSpace=wrap;html=1;fillColor=#000000;" parent="1" vertex="1">
          <mxGeometry x="10" y="700" width="80" height="40" as="geometry" />
        </mxCell>
        <mxCell id="K0stT1CYS860riI5PFnf-17" value="&lt;font style=&quot;font-size: 18px&quot;&gt;(0,n)&lt;/font&gt;" style="text;html=1;strokeColor=none;fillColor=none;align=center;verticalAlign=middle;whiteSpace=wrap;rounded=0;" parent="1" vertex="1">
          <mxGeometry x="240" y="630" width="40" height="20" as="geometry" />
        </mxCell>
        <mxCell id="K0stT1CYS860riI5PFnf-18" value="&lt;font style=&quot;font-size: 18px&quot;&gt;(1,1)&lt;/font&gt;" style="text;html=1;strokeColor=none;fillColor=none;align=center;verticalAlign=middle;whiteSpace=wrap;rounded=0;" parent="1" vertex="1">
          <mxGeometry x="440" y="740" width="40" height="20" as="geometry" />
        </mxCell>
        <mxCell id="K0stT1CYS860riI5PFnf-19" value="&lt;font style=&quot;font-size: 18px&quot;&gt;(1,n)&lt;/font&gt;" style="text;html=1;strokeColor=none;fillColor=none;align=center;verticalAlign=middle;whiteSpace=wrap;rounded=0;" parent="1" vertex="1">
          <mxGeometry x="120" y="340" width="40" height="20" as="geometry" />
        </mxCell>
        <mxCell id="K0stT1CYS860riI5PFnf-20" value="&lt;font style=&quot;font-size: 18px&quot;&gt;(1,1)&lt;/font&gt;" style="text;html=1;strokeColor=none;fillColor=none;align=center;verticalAlign=middle;whiteSpace=wrap;rounded=0;" parent="1" vertex="1">
          <mxGeometry x="120" y="150" width="40" height="20" as="geometry" />
        </mxCell>
        <mxCell id="K0stT1CYS860riI5PFnf-21" value="&lt;font style=&quot;font-size: 18px&quot;&gt;(1,1)&lt;/font&gt;" style="text;html=1;strokeColor=none;fillColor=none;align=center;verticalAlign=middle;whiteSpace=wrap;rounded=0;" parent="1" vertex="1">
          <mxGeometry x="405" y="80" width="40" height="20" as="geometry" />
        </mxCell>
        <mxCell id="K0stT1CYS860riI5PFnf-22" value="&lt;font style=&quot;font-size: 18px&quot;&gt;(0,n)&lt;/font&gt;" style="text;html=1;strokeColor=none;fillColor=none;align=center;verticalAlign=middle;whiteSpace=wrap;rounded=0;" parent="1" vertex="1">
          <mxGeometry x="220" y="80" width="40" height="20" as="geometry" />
        </mxCell>
        <mxCell id="K0stT1CYS860riI5PFnf-23" value="&lt;font style=&quot;font-size: 18px&quot;&gt;(0,1)&lt;/font&gt;" style="text;html=1;strokeColor=none;fillColor=none;align=center;verticalAlign=middle;whiteSpace=wrap;rounded=0;" parent="1" vertex="1">
          <mxGeometry x="560" y="340" width="40" height="20" as="geometry" />
        </mxCell>
        <mxCell id="K0stT1CYS860riI5PFnf-25" value="&lt;font style=&quot;font-size: 18px&quot;&gt;(0,n)&lt;/font&gt;" style="text;html=1;strokeColor=none;fillColor=none;align=center;verticalAlign=middle;whiteSpace=wrap;rounded=0;" parent="1" vertex="1">
          <mxGeometry x="570" y="150" width="40" height="20" as="geometry" />
        </mxCell>
        <mxCell id="K0stT1CYS860riI5PFnf-26" value="&lt;font style=&quot;font-size: 18px&quot;&gt;(0,n)&lt;/font&gt;" style="text;html=1;strokeColor=none;fillColor=none;align=center;verticalAlign=middle;whiteSpace=wrap;rounded=0;" parent="1" vertex="1">
          <mxGeometry x="220" y="370" width="40" height="20" as="geometry" />
        </mxCell>
        <mxCell id="K0stT1CYS860riI5PFnf-27" value="&lt;font style=&quot;font-size: 18px&quot;&gt;(1,1)&lt;/font&gt;" style="text;html=1;strokeColor=none;fillColor=none;align=center;verticalAlign=middle;whiteSpace=wrap;rounded=0;" parent="1" vertex="1">
          <mxGeometry x="410" y="370" width="40" height="20" as="geometry" />
        </mxCell>
        <mxCell id="fwInOYOS3nnot-pSwwib-1" value="&lt;font style=&quot;font-size: 18px&quot; color=&quot;#ffffff&quot;&gt;Código&lt;/font&gt;" style="ellipse;whiteSpace=wrap;html=1;fillColor=#000000;" parent="1" vertex="1">
          <mxGeometry x="630" y="680" width="80" height="40" as="geometry" />
        </mxCell>
        <mxCell id="fwInOYOS3nnot-pSwwib-2" value="" style="endArrow=none;html=1;entryX=0.5;entryY=1;entryDx=0;entryDy=0;exitX=0.5;exitY=0;exitDx=0;exitDy=0;" parent="1" source="9EKVIyOOfx1yKH4zafNA-4" target="fwInOYOS3nnot-pSwwib-1" edge="1">
          <mxGeometry width="50" height="50" relative="1" as="geometry">
            <mxPoint x="60" y="710" as="sourcePoint" />
            <mxPoint x="120" y="670" as="targetPoint" />
          </mxGeometry>
        </mxCell>
        <mxCell id="Am9kNuoJs-DJNHHpb7s0-1" value="&lt;font style=&quot;font-size: 18px&quot; color=&quot;#ffffff&quot;&gt;Código&lt;/font&gt;" style="ellipse;whiteSpace=wrap;html=1;fillColor=#000000;" vertex="1" parent="1">
          <mxGeometry x="520" y="460" width="80" height="40" as="geometry" />
        </mxCell>
        <mxCell id="Am9kNuoJs-DJNHHpb7s0-2" value="" style="endArrow=none;html=1;entryX=0.5;entryY=1;entryDx=0;entryDy=0;exitX=0.5;exitY=0;exitDx=0;exitDy=0;" edge="1" parent="1" source="Am9kNuoJs-DJNHHpb7s0-1" target="9EKVIyOOfx1yKH4zafNA-9">
          <mxGeometry width="50" height="50" relative="1" as="geometry">
            <mxPoint x="480" y="460" as="sourcePoint" />
            <mxPoint x="530" y="410" as="targetPoint" />
          </mxGeometry>
        </mxCell>
        <mxCell id="Am9kNuoJs-DJNHHpb7s0-3" value="&lt;font style=&quot;font-size: 18px&quot;&gt;Código&lt;/font&gt;" style="ellipse;whiteSpace=wrap;html=1;" vertex="1" parent="1">
          <mxGeometry x="470" y="-10" width="80" height="40" as="geometry" />
        </mxCell>
        <mxCell id="Am9kNuoJs-DJNHHpb7s0-4" value="&lt;font style=&quot;font-size: 18px&quot;&gt;Dia da Semana&lt;/font&gt;" style="ellipse;whiteSpace=wrap;html=1;" vertex="1" parent="1">
          <mxGeometry x="-330" y="270" width="100" height="50" as="geometry" />
        </mxCell>
        <mxCell id="Am9kNuoJs-DJNHHpb7s0-5" value="&lt;font style=&quot;font-size: 18px&quot; color=&quot;#ffffff&quot;&gt;Código&lt;/font&gt;" style="ellipse;whiteSpace=wrap;html=1;fillColor=#000000;" vertex="1" parent="1">
          <mxGeometry x="-450" y="570" width="80" height="40" as="geometry" />
        </mxCell>
        <mxCell id="Am9kNuoJs-DJNHHpb7s0-6" value="" style="endArrow=none;html=1;exitX=0.5;exitY=1;exitDx=0;exitDy=0;entryX=0.5;entryY=0;entryDx=0;entryDy=0;" edge="1" parent="1" source="9EKVIyOOfx1yKH4zafNA-6" target="Am9kNuoJs-DJNHHpb7s0-5">
          <mxGeometry width="50" height="50" relative="1" as="geometry">
            <mxPoint x="-170" y="470" as="sourcePoint" />
            <mxPoint x="-120" y="420" as="targetPoint" />
          </mxGeometry>
        </mxCell>
      </root>
    </mxGraphModel>
  </diagram>
</mxfile>
